<?xml version="1.0" encoding="UTF-8"?>
<svg id="Layer_1" xmlns="http://www.w3.org/2000/svg" version="1.1" viewBox="0 0 614 472">
  <!-- Generator: Adobe Illustrator 29.5.1, SVG Export Plug-In . SVG Version: 2.1.0 Build 141)  -->
  <defs>
    <style>
      .st0 {
        fill: #fff;
      }

      .st0, .st1 {
        stroke-miterlimit: 10;
      }

      .st0, .st1, .st2 {
        stroke: #bdddff;
        stroke-width: 2px;
      }

      .st1, .st2 {
        fill: #40adbf;
      }

      .st2 {
        stroke-linejoin: round;
      }
    </style>
  </defs>
  <path class="st1" d="M517.81,173.42c2.32.5,4.74.94,7.26,1.32,13.4,2,24.86,1.32,33.19.16-10.04-67.76-46.17-121.93-95.41-137.78-7.36-2.37-50.52-16.26-84.29,11.4-36.02,29.5-48.28,95.81-23.55,122.63,14.38,15.6,44.57,21.41,62.43,5.37,10.06-9.03,16.97-25.67,14.07-40.51-3.76-19.26-20.8-19.02-27.33-42.6-.76-2.74-5.97-22.56,3.88-36.79,1.39-2,7.2-10.41,15.72-10.28,8.58.13,14.23,8.83,16.2,11.87,5.23,8.06,5.91,16.52,6.28,21.09,2.77,33.98,4.19,51.04,5.64,54.32,5.91,13.35,17.74,20.19,33.52,27.88v-45.03h2.42v46.2c1.24.6,2.49,1.2,3.78,1.81,5.17,2.47,13.32,5.91,23.79,8.39v-52.22h2.42v52.76s0,0,0,0Z"/>
  <path class="st1" d="M517.81,174.45c2.32-.49,4.74-.93,7.26-1.3,13.4-1.97,24.86-1.3,33.19-.16-10.04,66.76-46.17,120.12-95.41,135.74-7.36,2.33-50.52,16.02-84.29-11.23-36.02-29.06-48.28-94.39-23.55-120.81,14.38-15.36,44.57-21.09,62.43-5.29,10.06,8.9,16.97,25.29,14.07,39.91-3.76,18.97-20.8,18.74-27.33,41.96-.76,2.69-5.97,22.22,3.88,36.24,1.39,1.97,7.2,10.25,15.72,10.13,8.58-.12,14.23-8.7,16.2-11.69,5.23-7.94,5.91-16.27,6.28-20.78,2.77-33.48,4.19-50.29,5.64-53.52,5.91-13.15,17.74-19.89,33.52-27.47v44.36s2.42,0,2.42,0v-45.52c1.24-.59,2.49-1.18,3.78-1.78,5.17-2.44,13.32-5.83,23.79-8.27v51.44s2.42,0,2.42,0v-51.98s0,.01,0,.01Z"/>
  <path class="st1" d="M347.36,210.27c-42.95,2.25-95.54-24.81-95.54-55.17,0-33.21,61.8-71.36,95.54-55.17,20.36,9.77,20.84,38.2,50.24,51.09,18.64,8.18,31.19,2.63,33.03,8.56,3.5,11.28-36.79,48.26-83.26,50.69h0Z"/>
  <path class="st2" d="M402.17,175.54c2.32.5,4.74.94,7.26,1.32,13.4,2,24.86,1.32,33.19.16-10.05-67.76-46.17-121.93-95.42-137.78-7.36-2.37-50.52-16.26-84.29,11.4-36.02,29.5-48.28,95.81-23.55,122.63,14.38,15.6,44.57,21.41,62.43,5.37,10.06-9.03,16.97-25.67,14.07-40.51-3.76-19.26-20.8-19.02-27.33-42.59-.76-2.74-5.97-22.56,3.88-36.79,1.38-2,7.2-10.41,15.72-10.28,8.58.13,14.23,8.83,16.2,11.87,5.23,8.06,5.91,16.52,6.28,21.09,2.77,33.98,4.19,51.04,5.64,54.32,5.91,13.35,17.74,20.19,33.52,27.88v-45.03h2.42v46.2c1.24.6,2.49,1.2,3.78,1.81,5.17,2.47,13.32,5.91,23.79,8.39v-52.22h2.42v52.76h0Z"/>
  <path class="st2" d="M402.17,180.27c2.32-.49,4.74-.93,7.26-1.3,13.4-1.97,24.86-1.3,33.19-.16-10.05,66.76-46.17,120.12-95.42,135.74-7.36,2.33-50.52,16.02-84.29-11.23-36.02-29.06-48.28-94.39-23.55-120.81,14.38-15.36,44.57-21.09,62.43-5.29,10.06,8.9,16.97,25.29,14.07,39.91-3.76,18.97-20.8,18.74-27.33,41.96-.76,2.69-5.97,22.22,3.88,36.24,1.38,1.97,7.2,10.25,15.72,10.13,8.58-.12,14.23-8.7,16.2-11.69,5.23-7.94,5.91-16.27,6.28-20.78,2.77-33.48,4.19-50.29,5.64-53.52,5.91-13.15,17.74-19.89,33.52-27.47v44.36s2.42,0,2.42,0v-45.52c1.24-.59,2.49-1.18,3.78-1.78,5.17-2.44,13.32-5.83,23.79-8.27v51.44s2.42,0,2.42,0v-51.98s0,.01,0,.01Z"/>
  <path class="st1" d="M92.34,203.08c4.25,10.15,8.5,20.3,12.74,30.45,8.81-5.19,28.25-14.98,54.42-14.68,26.59.31,46.07,10.87,54.75,16.33,4.14-10.2,8.28-20.4,12.41-30.6,17.99-9.77,29.7-28.55,29.9-48.68.2-19.4-10.37-32.73-12.22-35.01-7.6-9.3-18.19-15.64-30.12-17.23-1.48-2.53-20.51-33.79-55.84-34.58-24.92-.55-48.31,14.26-60.72,38.37-10.05,3.18-18.74,9.83-24.92,18.67-2.96,4.23-10.35,16.15-9.86,31.87.59,18.74,12.17,36.02,29.46,45.08Z"/>
  <path class="st1" d="M164.02,209.68c.92-1.53,4.28-7.12,10.18-7.28,5.2-.14,8.67,4.05,9.19,4.69,2.58-1.87,5.17-3.74,7.76-5.61-1.13-1.26-6.44-6.88-15.47-7.69-8.78-.79-15,3.5-16.44,4.54-1.64-1.26-7.53-5.48-16.03-5.16-10.97.42-17.48,8.07-18.45,9.25,2.89,1.63,5.78,3.26,8.67,4.89,1-1.84,3.01-4.79,6.23-5.55,6.2-1.47,13.13,6.02,15.3,12.8.59,1.85.9,12.35.9,14.07,2.02-.15,4.04-.26,6.07-.33-.24-3.24.16-15.41,2.09-18.62h0Z"/>
  <path class="st1" d="M159.4,225.71c-.38.02-.75.04-1.13.06-.11-3.81-.39-10.26-.97-12.09-2.27-7.12-9.05-14.8-16.02-14.8-.72,0-1.45.08-2.14.25-2.47.59-4.68,2.2-6.51,4.7l-3.62-2.04c2.76-2.43,7.65-5.66,14.29-5.91.28-.01.56-.02.84-.02,6.61,0,11.4,2.93,13.67,4.68l1.39,1.07,1.42-1.03c1.73-1.26,6.45-4.19,12.92-4.19.65,0,1.3.03,1.94.09,5.29.48,9.17,2.76,11.59,4.71l-3.38,2.45c-1.86-1.73-5.05-3.94-9.23-3.94-.1,0-.2,0-.31,0-5.95.16-9.92,4.7-12.19,8.49-2.04,3.4-2.52,12.59-2.55,17.5h0Z"/>
  <path class="st1" d="M171.39,105.66l.36-1.94-1.58-.96c-1.52-.92-5.72-3.07-11.79-3.07h-.21c-5.96.05-10.08,2.16-11.58,3.07l-1.64.99.43,1.99c7.4,34.04,9.27,68.64,5.56,102.83-.45,4.17-.99,8.34-1.62,12.5h18.69c-.71-5.48-1.29-10.97-1.75-16.45-2.72-32.79-.99-66.09,5.14-98.97Z"/>
  <path class="st1" d="M163.78,204.87c-3.27-39.4.3-73.59,5.17-99.75-.85-.51-4.77-2.78-10.78-2.74-5.76.05-9.5,2.2-10.39,2.74,6.52,29.98,9.82,64.98,5.61,103.77-.45,4.17-.98,8.23-1.57,12.19h13.67c-.67-5.23-1.24-10.63-1.71-16.21h0Z"/>
  <path class="st1" d="M123.86,313.6c18.66.42,32.21-13.1,35.85-16.97,3.64,3.88,17.19,17.4,35.85,16.97,26.83-.6,50.32-29.73,48.72-59.18-1.62-29.79-28.52-52.56-48.72-52.56-14.18,0-26.95,6.54-35.85,16.97-8.91-10.44-21.67-16.97-35.85-16.97-25.74,0-47.3,26.08-48.72,52.56-1.57,29.47,21.9,58.57,48.72,59.18ZM134.74,294.52c-13.55.36-44.65-12.46-44.34-37.39.27-21.69,24.16-37.64,44.34-36.19,12.44.9,21.25,8.26,24.98,11.83,3.27-3.26,12.22-11.23,24.98-11.83,18.99-.88,41.24,14.85,41.01,37.17-.26,24.71-27.85,36.7-41.01,36.41-7.55-.17-13.87-3.19-13.87-3.19-4.24-2.05-8.01-5.01-11.11-8.64-3.1,3.64-6.88,6.59-11.11,8.64,0,0-6.24,2.98-13.87,3.19h0Z"/>
  <path class="st1" d="M87.44,258.56h.05c1.05,22.4,19.27,40.24,41.58,40.24,12.12,0,23.03-5.26,30.64-13.65,7.61,8.4,18.52,13.65,30.64,13.65,22.32,0,40.53-17.84,41.58-40.24h.05c0-.28-.01-.55-.02-.83,0-.28.02-.55.02-.83h-.05c-1.05-22.4-19.27-40.24-41.58-40.24-12.12,0-23.03,5.26-30.64,13.66-7.61-8.4-18.52-13.66-30.64-13.66-22.32,0-40.53,17.84-41.58,40.24h-.05c0,.28.01.55.02.83,0,.28-.02.55-.02.83ZM97.88,257.73c2.27-16.99,17.3-30.11,35.49-30.11,10.42,0,19.79,4.3,26.34,11.17,6.54-6.87,15.92-11.17,26.34-11.17,18.2,0,33.22,13.12,35.49,30.11-2.27,16.99-17.3,30.11-35.49,30.11-10.42,0-19.79-4.3-26.34-11.17-6.54,6.87-15.92,11.17-26.34,11.17-18.2,0-33.22-13.12-35.49-30.11Z"/>
  <path class="st1" d="M80.81,259.22h.05c1.14,27.12,20.92,48.7,45.15,48.7,13.16,0,25.01-6.37,33.27-16.53,8.27,10.16,20.11,16.53,33.27,16.53,24.23,0,44.01-21.59,45.15-48.7h.05c0-.34-.01-.67-.02-1.01,0-.34.02-.67.02-1.01h-.05c-1.14-27.12-20.92-48.7-45.15-48.7-13.16,0-25.01,6.37-33.27,16.53-8.27-10.16-20.11-16.53-33.27-16.53-24.23,0-44.01,21.59-45.15,48.7h-.05c0,.34.01.67.02,1.01,0,.34-.02.67-.02,1.01ZM92.14,258.21c2.47-20.56,18.78-36.45,38.54-36.45,11.31,0,21.49,5.21,28.6,13.52,7.1-8.31,17.29-13.52,28.6-13.52,19.76,0,36.07,15.88,38.54,36.45-2.47,20.56-18.78,36.45-38.54,36.45-11.31,0-21.49-5.21-28.6-13.52-7.1,8.31-17.29,13.52-28.6,13.52-19.76,0-36.07-15.88-38.54-36.45Z"/>
  <path class="st1" d="M169.13,100.37c4.31-4.91,15.81-16.69,33.17-19.49,25.87-4.16,56.53,12.96,59.75,38.37,1.81,14.22-5.54,26.53-9.73,32.4.11-2.84.64-23.48-14.3-35.78-14.42-11.87-35.23-9.37-47.59-1.71-10.77,6.67-16.99,18.41-19.92,16.71-1.39-.81-.78-3.91-.46-9.31.53-8.82-.17-16.1-.93-21.2h0Z"/>
  <path class="st1" d="M255.28,130.04c-3.97-10.04-10.16-15.91-12.72-18.02-7.73-6.37-17.62-9.73-28.58-9.73-9.68,0-19.66,2.74-27.38,7.53-3.87,2.4-7.16,5.31-9.92,8.06.12-5.35-.16-10.7-.83-15.97,5.29-5.6,14.88-13.66,27.68-15.72,2.17-.35,4.44-.53,6.73-.53,10.25,0,21.02,3.51,29.55,9.63,9.02,6.47,14.65,15.19,15.84,24.54.45,3.53.26,6.96-.36,10.21h0Z"/>
  <path class="st1" d="M255.18,138.4c-1.68-8.07-5.58-18-14.45-25.31-7.26-5.98-16.51-9.14-26.77-9.14-9.12,0-18.52,2.59-25.82,7.11-5.9,3.65-10.47,8.64-13.81,12.27-.11.13-.23.26-.35.38.05-.61.09-1.26.13-1.94.41-6.78.16-13.59-.73-20.28,5.4-5.84,15.63-14.69,29.61-16.93,2.34-.38,4.78-.57,7.24-.57,10.88,0,22.27,3.7,31.25,10.14,9.42,6.75,15.28,15.83,16.52,25.56.86,6.76-.54,13.16-2.82,18.71h0Z"/>
  <path class="st1" d="M249.86,113.64c-1.43-1.58-2.96-3.04-4.6-4.39-8.49-6.99-19.32-10.69-31.3-10.69-10.47,0-21.28,2.98-29.66,8.17-1.3.81-2.54,1.66-3.72,2.55-.11-2.04-.28-4.08-.51-6.11,4.81-4.8,13.27-11.54,24.13-13.29,1.94-.31,3.97-.47,6.03-.47,9.36,0,19.22,3.22,27.05,8.83,5.95,4.27,10.27,9.59,12.58,15.39h0Z"/>
  <path class="st1" d="M102.04,167.81c-8.46,0-15.32,6.27-15.32,14.01s6.86,14.01,15.32,14.01,15.32-6.27,15.32-14.01-6.86-14.01-15.32-14.01Z"/>
  <path class="st0" d="M93.45,191.29c-2.74-2.51-4.26-5.88-4.26-9.47,0-7.64,6.77-12.96,12.85-12.96,3.03,0,6.16,1.27,8.59,3.5,2.74,2.51,4.26,5.88,4.26,9.47,0,7.64-6.77,12.96-12.85,12.96-3.03,0-6.16-1.27-8.59-3.5Z"/>
  <path class="st1" d="M214.97,167.81c-8.46,0-15.32,6.27-15.32,14.01s6.86,14.01,15.32,14.01,15.32-6.27,15.32-14.01-6.86-14.01-15.32-14.01Z"/>
  <path class="st0" d="M206.38,191.29c-2.74-2.51-4.26-5.88-4.26-9.47,0-7.64,6.77-12.96,12.85-12.96,3.03,0,6.16,1.27,8.59,3.5,2.74,2.51,4.26,5.88,4.26,9.47,0,7.64-6.77,12.96-12.85,12.96-3.03,0-6.16-1.27-8.59-3.5Z"/>
  <path class="st1" d="M144.12,104.76c-4.08-4.86-14.99-16.51-31.46-19.28-24.53-4.12-53.61,12.82-56.67,37.96-1.71,14.07,5.26,26.24,9.23,32.05-.11-2.81-.6-23.23,13.56-35.4,13.67-11.74,33.41-9.27,45.13-1.69,10.22,6.6,16.11,18.22,18.89,16.53,1.32-.8.74-3.86.43-9.21-.5-8.73.16-15.93.88-20.97h0Z"/>
  <path class="st1" d="M62.63,123.97c1.13-9.29,6.46-17.93,15.01-24.33,7.97-5.96,17.99-9.38,27.5-9.38,2.11,0,4.19.17,6.19.5,11.94,2.01,20.95,9.94,25.92,15.44-.61,4.9-.88,9.88-.82,14.86-2.39-2.39-5.16-4.82-8.35-6.89-7.45-4.82-17.1-7.58-26.47-7.58-10.63,0-20.19,3.38-27.65,9.79-2.27,1.94-7.53,7.13-11.28,15.86-.34-2.66-.39-5.44-.05-8.27Z"/>
  <path class="st1" d="M62.52,142.37c1.59-7.98,5.29-17.81,13.7-25.04,6.88-5.91,15.66-9.04,25.38-9.04,8.64,0,17.57,2.57,24.48,7.03,5.59,3.62,9.93,8.54,13.1,12.14.11.12.22.25.33.38-.04-.6-.09-1.25-.13-1.92-.39-6.71-.15-13.45.69-20.06-5.12-5.78-14.83-14.53-28.08-16.75-2.22-.37-4.53-.56-6.87-.56-10.31,0-21.12,3.66-29.63,10.03-8.93,6.68-14.49,15.66-15.66,25.28-.81,6.69.52,13.02,2.68,18.51h0Z"/>
  <path class="st1" d="M80.01,102.56c7.3-5.47,16.46-8.6,25.12-8.6,1.89,0,3.75.15,5.52.45,10.1,1.7,18.04,8.32,22.55,13.03-.19,1.8-.35,3.61-.46,5.43-.81-.6-1.65-1.19-2.53-1.75-8.07-5.22-18.51-8.21-28.63-8.21-11.6,0-22.05,3.71-30.22,10.73-.86.74-1.7,1.52-2.5,2.33,2.31-5.04,6.11-9.64,11.14-13.41Z"/>
  <path class="st1" d="M183.54,225.38c-7.03-3.74-13.84,9.5-26.45,9.24-13.3-.28-20.02-15.32-25.43-12.07-3.86,2.32-4.94,12.05-2.35,20.15,3.07,9.56,6.2,19.31,6.46,29.43.91,35.97-33.47,63.1-36.34,98.95-1.77,22.12,8.84,42.96,19.55,61.85,4.02,7.09,8.32,14.37,14.8,18.77,1.07.73,2.54,1.35,3.53.48.94-.83.76-2.44.34-3.67-2.51-7.34-10.2-11.4-12.71-18.74-1.89-5.53-.43-11.69,1.21-17.32,7.39-25.27,18.37-49.29,32.42-70.95,12.97-19.98,29.05-39.19,32.72-63.33,2.04-13.4-.01-27.1-2.06-40.5-1.18-7.69-2.99-10.86-5.7-12.3h0Z"/>
</svg>