<svg width="733" height="715" viewBox="0 0 733 715" fill="none" xmlns="http://www.w3.org/2000/svg">
<path d="M730.126 611.134C725.975 572.04 700.085 545.441 691.052 536.238C591.013 434.307 258.352 382.854 194.612 293.406C235.459 272.356 274.165 249.085 308.045 221.769C323.727 209.123 338.474 194.863 340.158 176.287C341.169 165.144 335.544 152.241 325.478 142.612C317.897 135.359 308.62 130.527 298.53 128.552C288.125 103.085 277.346 77.7703 266.027 52.6963C240.656 57.0866 216.366 65.7175 194.791 79.924C161.103 102.106 136.634 136.255 119.906 172.975C118.299 176.501 116.759 180.086 115.302 183.722C103.304 191.176 92.7789 198.386 83.283 205.623C56.2841 226.194 36.7789 247.627 21.8987 273.079C17.9661 279.805 8.75882 295.552 4.60968 312.485C0.350934 329.859 2.2651 344.547 10.2853 356.271C11.7397 358.395 13.3919 360.423 15.2472 362.349C17.0063 364.179 23.4599 370.576 32.6191 376.122C42.5695 382.145 52.1911 384.868 60.444 383.993C62.0988 383.819 72.2364 381.272 77.3266 374.204C80.4625 369.851 80.0027 363.928 76.054 358.344C74.1666 355.663 71.6696 353.333 68.8011 351.498C89.4826 342.519 110.292 333.441 130.921 324.059C155.88 350.163 192.888 366.14 227.714 379.103C301.091 406.416 375.65 430.556 451.107 451.435C500.536 465.112 550.794 477.553 596.616 500.599C642.438 523.642 684.245 558.792 704.419 605.975C712.902 625.819 714.955 653.06 699.553 666.365C703.994 660.886 703.636 651.153 698.856 645.234C692.707 637.623 682.508 634.849 672.98 632.639C591.355 613.697 505.64 603.945 432.455 563.115C417.382 554.706 402.435 544.446 394.185 529.277C385.935 514.107 386.491 492.936 399.596 481.697C394.557 489.07 405.587 498.98 413.971 495.909C422.355 492.84 426.124 483.01 426.942 474.115C427.317 470.032 427.255 465.762 425.534 462.043C421.906 454.204 411.621 451.213 403.307 453.541C394.995 455.868 388.44 462.252 383.117 469.056C374.236 480.407 367.94 494.378 365.705 508.612C351.844 497.289 339.188 487.997 327.01 480.14C298.493 461.736 271.713 450.678 242.736 445.338C235.079 443.928 217.146 440.624 199.825 442.481C182.052 444.388 168.902 451.186 160.617 462.725C159.117 464.815 157.775 467.062 156.593 469.462C155.473 471.739 151.658 479.99 149.565 490.499C147.293 501.912 148.009 511.892 151.639 519.361C152.367 520.86 158.211 529.533 166.584 531.917C171.741 533.386 177.152 530.935 181.052 525.322C182.926 522.633 184.269 519.49 185.017 516.167C248.417 583.373 314.087 652.054 388.349 697.135C405.568 707.588 423.988 716.609 442.012 711.871C452.826 709.03 463.036 699.345 468.656 686.596C473.19 676.312 474.454 665.142 472.313 654.291C469.992 642.527 463.689 633.251 456.256 630.661C451.725 629.083 446.726 630.41 442.881 634.214C439.446 637.612 437.42 642.476 437.174 647.91C437.104 649.47 436.62 661.825 444.579 664.966C450.856 667.44 457.542 662.274 458.106 661.822C456.909 666.381 452.639 680.411 441.045 684.844C431.076 688.657 420.898 683.169 415.559 680.673C389.793 668.626 363.147 650.644 334.1 625.704C308.093 603.375 282.575 577.627 257.9 552.727C240.041 534.705 221.573 516.071 203.02 498.83C196.08 492.38 188.602 486.122 180.232 486.609C176.091 486.85 172.003 489.453 169.051 493.533C169.61 489.918 170.859 486.459 172.604 483.877C177.826 476.159 186.37 473.475 193.232 472.009C208.145 468.825 224.364 468.959 241.445 472.405C268.879 477.943 288.013 488.567 289.457 489.343C342.853 518.115 375.982 555.191 420.903 582.702C442.352 595.838 482.742 608.009 563.525 632.347C610.087 646.377 648.815 656.72 675.174 663.476C669.239 678.11 670.242 691.222 676.987 696.204C683.855 701.274 694.91 696.613 696.826 695.805C721.523 685.39 733.634 644.17 730.126 611.134ZM58.6394 328.658C54.2817 331.237 47.796 335.274 46.5262 342.238C45.3632 348.608 49.1301 354.323 51.1779 356.977C47.9217 357.269 39.6956 357.544 34.2338 352.188C31.6032 349.609 27.9513 344.349 30.1034 328.738C32.186 313.622 37.8349 298.404 46.8871 283.505C54.8565 270.39 65.7106 257.128 79.1445 244.09C86.6675 236.789 94.8669 229.63 103.796 222.567C99.4384 246.169 100.168 270.186 109.523 292.095C110.942 295.424 112.53 298.626 114.262 301.719C104.109 305.943 78.6553 316.806 58.6394 328.652V328.658ZM222.314 185.937C237.959 173.952 254.887 163.863 272.697 155.665C274.363 157.032 276.285 158.183 278.415 159.066C284.476 161.575 291.927 161.107 296.961 157.902C299.479 156.297 301.059 154.21 301.605 151.93C303.789 152.765 305.58 153.934 306.893 154.967C311.304 158.445 314.266 163.558 314.437 167.993C314.761 176.4 308.574 183.805 301.845 190.555C281.755 210.701 255.79 229.654 222.472 248.499C210.187 255.448 197.379 262.117 184.349 268.592C179.783 231.671 219.945 187.757 222.317 185.937H222.314Z" fill="#9DD38C" stroke="white" stroke-width="3" stroke-miterlimit="10"/>
<path d="M431.817 709.955C417.576 709.955 402.693 702.087 390.013 694.39C356.775 674.212 322.357 647.457 284.793 612.594C252.126 582.276 221.337 549.989 187.352 513.962C186.737 513.309 185.89 512.956 185.018 512.956C184.735 512.956 184.452 512.994 184.171 513.071C183.027 513.384 182.15 514.305 181.89 515.463C181.225 518.414 180.027 521.188 178.426 523.487C175.897 527.125 172.747 529.126 169.558 529.126C168.858 529.126 168.154 529.027 167.467 528.832C160.313 526.793 155.073 519.059 154.531 517.959C151.208 511.126 150.582 501.848 152.715 491.13C154.734 481.004 158.402 473.074 159.477 470.885C160.573 468.657 161.835 466.543 163.225 464.603C170.948 453.848 183.377 447.481 200.171 445.677C203.481 445.322 207.034 445.142 210.734 445.142C223.946 445.142 236.249 447.408 242.16 448.5C270.712 453.763 297.125 464.673 325.276 482.842C337.47 490.71 350.032 499.954 363.68 511.102C364.263 511.578 364.982 511.824 365.709 511.824C366.094 511.824 366.482 511.755 366.853 511.613C367.925 511.201 368.698 510.249 368.877 509.114C370.986 495.689 376.943 482.165 385.648 471.038C391.943 462.99 397.83 458.412 404.174 456.636C405.714 456.205 407.345 455.986 409.016 455.986C415.199 455.986 420.541 458.894 422.626 463.397C423.829 465.995 424.174 469.208 423.752 473.823C423.415 477.485 421.634 489.685 412.874 492.896C412.189 493.147 411.446 493.273 410.665 493.273C407.39 493.273 403.752 491.055 402.201 488.112C401.306 486.416 401.322 484.867 402.249 483.508C403.158 482.178 402.942 480.38 401.744 479.305C401.135 478.759 400.37 478.483 399.603 478.483C398.835 478.483 398.116 478.74 397.515 479.257C390.759 485.052 386.559 493.744 385.693 503.734C384.891 512.983 386.907 522.598 391.374 530.812C400.413 547.426 417.245 558.302 430.9 565.921C456.41 580.152 485.81 591.908 520.783 601.855C551.859 610.695 584.301 617.308 615.673 623.705C634.302 627.502 653.561 631.429 672.262 635.769C681.875 638 690.954 640.558 696.368 647.257C700.239 652.046 700.565 660.032 697.068 664.347C696.02 665.64 696.133 667.518 697.328 668.674C697.948 669.276 698.755 669.581 699.563 669.581C700.308 669.581 701.054 669.321 701.659 668.799C709.419 662.095 713.742 651.698 714.159 638.73C714.51 627.841 712.101 615.762 707.377 604.718C697.648 581.969 682.498 560.833 662.341 541.899C644.338 524.988 622.713 510.128 598.066 497.736C557 477.084 511.91 464.753 468.304 452.832C462.947 451.365 457.407 449.851 451.972 448.348C376.908 427.578 301.836 403.269 228.841 376.101C193.589 362.98 157.611 347.324 133.248 321.846C132.63 321.198 131.785 320.856 130.93 320.856C130.481 320.856 130.029 320.949 129.604 321.145C108.684 330.661 87.4708 339.907 67.5351 348.562C66.4471 349.036 65.7092 350.069 65.613 351.251C65.5194 352.434 66.0835 353.574 67.0833 354.213C69.6311 355.842 71.8287 357.913 73.4434 360.203C76.5552 364.604 77.0365 369.139 74.7346 372.336C70.385 378.375 61.3328 380.67 60.1164 380.809C59.2262 380.903 58.3012 380.951 57.3681 380.951C50.4467 380.951 42.4665 378.334 34.2885 373.385C25.4609 368.039 19.2586 361.889 17.5663 360.131C15.8447 358.341 14.2887 356.434 12.9413 354.464C5.46379 343.535 3.7127 329.671 7.73352 313.258C11.7704 296.78 20.8145 281.313 24.6749 274.71C39.3386 249.631 58.5819 228.492 85.2358 208.183C94.7639 200.925 105.155 193.816 117.004 186.456C117.584 186.095 118.036 185.56 118.29 184.923C119.699 181.41 121.228 177.841 122.835 174.312C131.566 155.146 141.894 137.873 153.526 122.979C166.363 106.544 180.843 92.9611 196.565 82.6099C215.947 69.8481 238.671 61.0032 264.141 56.2998C274.514 79.3592 284.806 103.419 295.572 129.772C295.981 130.773 296.866 131.5 297.925 131.709C307.399 133.563 316.163 138.138 323.271 144.939C332.647 153.907 337.898 165.81 336.973 176.003C335.395 193.386 321.175 207.073 306.041 219.276C275.725 243.718 238.799 267.037 193.154 290.559C192.325 290.985 191.723 291.753 191.504 292.657C191.285 293.561 191.469 294.519 192.009 295.279C224.513 340.895 323.659 376.084 428.625 413.342C532.223 450.113 639.347 488.136 688.773 538.496C697.21 547.092 722.885 573.252 726.946 611.481C728.668 627.7 726.519 645.7 721.046 660.869C715.215 677.032 706.177 688.389 695.59 692.854C690.735 694.903 687.145 695.334 684.987 695.334C682.482 695.334 680.434 694.762 678.902 693.63C673.339 689.52 673.024 677.35 678.159 664.693C678.507 663.834 678.467 662.865 678.05 662.039C677.633 661.212 676.879 660.605 675.98 660.374C639.01 650.898 601.488 640.437 564.459 629.281C484.048 605.055 443.685 592.892 422.589 579.973C403.142 568.062 386.139 554.513 368.139 540.173C345.121 521.833 321.322 502.87 290.99 486.526L290.862 486.456C285.809 483.714 267.365 474.369 242.09 469.267C233.041 467.439 224.12 466.514 215.573 466.514C207.657 466.514 199.917 467.308 192.573 468.876C185.128 470.465 175.83 473.403 169.959 482.085C167.975 485.022 166.529 488.918 165.893 493.051C165.666 494.517 166.473 495.946 167.844 496.51C168.24 496.674 168.654 496.751 169.063 496.751C170.069 496.751 171.044 496.278 171.662 495.424C174.068 492.096 177.348 490.004 180.431 489.825C180.671 489.811 180.917 489.803 181.161 489.803C188.021 489.803 194.648 495.43 200.85 501.192C219.356 518.39 237.8 537 255.634 554.998C280.363 579.951 305.924 605.742 332.024 628.152C361.298 653.285 388.182 671.419 414.216 683.592C414.579 683.76 414.964 683.945 415.373 684.14C419.747 686.224 426.356 689.373 433.782 689.373C436.734 689.373 439.565 688.862 442.204 687.854C454.191 683.271 459.265 670.097 461.222 662.649C461.575 661.311 461.03 659.898 459.872 659.144C459.338 658.796 458.728 658.622 458.118 658.622C457.41 658.622 456.704 658.857 456.121 659.32C455.961 659.449 452.162 662.434 448.197 662.434C447.331 662.434 446.513 662.285 445.765 661.99C440.027 659.727 440.332 649.255 440.386 648.068C440.594 643.442 442.284 639.338 445.142 636.51C447.278 634.396 449.86 633.232 452.416 633.232C453.365 633.232 454.303 633.393 455.204 633.706C461.484 635.894 467.096 644.424 469.17 654.925C471.183 665.126 469.994 675.632 465.724 685.312C460.49 697.185 451.093 706.178 441.201 708.778C438.199 709.567 435.042 709.969 431.82 709.969L431.817 709.955ZM103.8 219.358C103.094 219.358 102.391 219.591 101.811 220.049C92.8577 227.128 84.4819 234.443 76.9135 241.787C63.2817 255.014 52.2566 268.49 44.1481 281.838C34.866 297.114 29.0727 312.747 26.9286 328.299C24.6188 345.05 28.7118 351.262 31.9921 354.48C36.9085 359.304 43.584 360.318 48.316 360.318C49.3452 360.318 50.4039 360.27 51.4652 360.176C52.6335 360.072 53.6494 359.339 54.1199 358.264C54.5905 357.188 54.4354 355.944 53.7189 355.016C51.4091 352.022 48.8346 347.476 49.6847 342.816C50.6525 337.51 55.6572 334.153 60.2741 331.421C78.8811 320.409 102.859 309.945 115.496 304.688C116.341 304.335 116.996 303.64 117.295 302.773C117.595 301.906 117.509 300.953 117.063 300.153C115.355 297.101 113.809 293.965 112.475 290.838C104.129 271.286 102.271 248.513 106.955 223.152C107.198 221.836 106.599 220.509 105.455 219.819C104.944 219.511 104.369 219.358 103.8 219.358ZM272.696 152.454C272.241 152.454 271.784 152.551 271.356 152.749C253.07 161.165 235.912 171.474 220.364 183.387C218.931 184.484 208.13 195.997 197.998 212.413C192.253 221.718 187.874 230.772 184.978 239.325C181.34 250.075 180.057 260.052 181.161 268.985C181.289 270.018 181.909 270.925 182.826 271.417C183.299 271.671 183.823 271.799 184.345 271.799C184.834 271.799 185.32 271.687 185.772 271.465C200.217 264.287 212.736 257.687 224.045 251.292C257.623 232.302 283.814 213.176 304.111 192.821C311.356 185.555 318.007 177.504 317.638 167.87C317.43 162.452 314.072 156.542 308.875 152.444C306.958 150.935 304.897 149.752 302.748 148.928C302.379 148.786 301.991 148.717 301.603 148.717C301.087 148.717 300.574 148.84 300.106 149.089C299.291 149.519 298.697 150.282 298.483 151.181C298.125 152.682 297.002 154.068 295.235 155.194C292.941 156.657 289.902 157.463 286.678 157.463C284.223 157.463 281.791 156.992 279.641 156.101C277.823 155.349 276.171 154.367 274.73 153.185C274.145 152.706 273.426 152.457 272.696 152.457V152.454Z" fill="#9DD38C" stroke="white" stroke-width="2" stroke-miterlimit="10"/>
<path d="M277.359 242.231C296.386 251.079 307.892 213.315 326.253 224.635C333.292 228.974 338.107 238.293 340.81 244.494C342.441 214.152 342.286 168.777 329.226 131.188C328.408 128.836 326.756 124.767 324.47 119.79C314.343 97.7504 302.88 84.9378 295.017 74.9318C264.559 36.189 256.605 0.260841 247.15 1.72697C246.497 1.82864 245.888 2.20319 245.305 2.85065C231.911 17.7206 236.531 104.415 237.274 116.89C238.881 143.856 240.217 170.134 249.377 196.872C253.619 209.262 262.554 235.344 277.362 242.231H277.359Z" fill="#9DD38C" stroke="white" stroke-width="2" stroke-miterlimit="10"/>
<path d="M283.203 235.56C282.425 235.56 281.618 235.362 280.739 234.95C277.488 233.439 272.384 229.26 266.529 217.926C262.185 209.52 259.041 200.341 256.961 194.268C248.417 169.322 246.957 144.732 245.415 118.701L245.278 116.41C244.875 109.62 243.586 85.5521 244.006 60.9008C244.479 33.0123 246.907 19.6914 248.861 13.4229C248.984 13.6235 249.109 13.8349 249.24 14.0569C251.139 17.2648 253.323 21.5374 255.852 26.4816C263.022 40.5034 272.844 59.7076 288.711 79.8936C289.783 81.2581 290.9 82.6466 292.082 84.1181C299.538 93.3938 308.817 104.938 317.183 123.144C319.474 128.131 320.992 131.93 321.65 133.825C329.649 156.844 333.619 185.749 333.506 219.973C332.509 219.162 331.496 218.437 330.459 217.801C326.876 215.591 323.118 214.472 319.287 214.472C309.849 214.472 302.623 221.099 296.25 226.945C291.63 231.18 286.853 235.563 283.203 235.563V235.56Z" fill="#9DD38C" stroke="white" stroke-width="2" stroke-miterlimit="10"/>
<path d="M352.079 226.315C352.672 226.946 353.827 228.15 354.415 230.127C354.862 231.628 354.774 233.073 354.672 234.713C354.533 236.966 354.311 240.62 352.21 241.854C351.02 242.555 349.67 242.212 348.951 242.017C335.405 238.317 324.166 230.595 324.166 230.595C323.04 229.822 321.361 228.65 319.346 227.158C320.514 225.317 323.225 221.603 328.024 219.252C330.999 217.794 333.718 217.379 335.536 217.267C343.73 220.325 349.686 223.765 352.079 226.315Z" fill="#9DD38C" stroke="white" stroke-width="2" stroke-miterlimit="10"/>
<path d="M346.733 232.914C340.734 230.806 335.497 228.045 332.232 226.151C332.968 225.846 333.73 225.619 334.507 225.469C342.001 228.444 345.49 231.018 346.23 231.809L346.27 231.852C346.476 232.069 346.669 232.278 346.72 232.393C346.736 232.502 346.736 232.69 346.73 232.917L346.733 232.914Z" fill="#9DD38C" stroke="white" stroke-width="2" stroke-miterlimit="10"/>
<path d="M262.888 172.675C257.696 191.125 274.217 222.603 294.257 223.957C307.472 224.848 322.48 212.656 324.207 197.227C326.496 176.782 305.079 154.092 285.967 155.445C278.409 155.981 266.28 160.625 262.888 172.675Z" fill="#9DD38C" stroke="white" stroke-width="2" stroke-miterlimit="10"/>
<path d="M295.632 215.977C295.351 215.977 295.07 215.966 294.798 215.95C289.307 215.581 283.297 211.305 278.303 204.226C271.694 194.852 268.457 182.499 270.609 174.85C272.94 166.562 282.046 163.769 286.534 163.451C286.887 163.426 287.251 163.413 287.614 163.413C294.095 163.413 301.789 167.517 307.689 174.12C313.83 180.99 317.024 189.295 316.238 196.331C315.674 201.364 312.939 206.436 308.734 210.251C304.783 213.834 299.888 215.974 295.637 215.974L295.632 215.977Z" fill="white" stroke="white" stroke-width="2" stroke-miterlimit="10"/>
<path d="M277.667 180.988C275.012 190.426 283.463 206.532 293.715 207.225C300.476 207.683 308.154 201.444 309.039 193.549C310.21 183.088 299.252 171.479 289.475 172.172C285.61 172.445 279.402 174.823 277.667 180.988Z" fill="#9DD38C" stroke="white" stroke-width="2" stroke-miterlimit="10"/>
<path d="M294.422 199.221C294.366 199.221 294.31 199.221 294.259 199.216C293.078 199.135 290.931 197.95 288.757 194.868C285.777 190.641 284.705 185.598 285.392 183.161C286.025 180.911 289.223 180.234 290.046 180.175C290.134 180.169 290.228 180.164 290.321 180.164C292.522 180.164 295.409 181.801 297.673 184.335C300.047 186.992 301.352 190.178 301.074 192.65C300.654 196.398 296.751 199.216 294.425 199.216L294.422 199.221Z" fill="white" stroke="white" stroke-width="2" stroke-miterlimit="10"/>
<path d="M391.428 281.089C375.518 257.326 350.768 236.458 330.487 226.278C315.051 218.53 287.079 209.5 270.587 224.413C252.082 241.148 259.506 278.927 268.783 298.664C271.988 305.483 280.318 323.197 298.401 329.789C305.079 332.224 311.092 332.414 315.123 332.181C311.552 330.137 306.43 326.646 301.5 320.958C298.546 317.552 291.14 308.145 288.598 293.912C287.611 288.393 283.585 265.836 296.34 254.172C308.405 243.138 327.774 249.797 332.466 251.411C365.418 262.744 394.844 309.041 381.245 342.192C379.151 347.294 372.872 359.81 354.104 368.813C354.104 368.813 378.379 371.804 389.816 364.479C405.99 354.119 419.819 323.497 391.43 281.092L391.428 281.089Z" fill="#9DD38C" stroke="white" stroke-width="2" stroke-miterlimit="10"/>
<path d="M379.355 360.045C383.993 354.801 386.873 349.595 388.661 345.239C394.946 329.917 393.781 311.248 385.376 292.67C380.416 281.707 373.198 271.377 364.502 262.797C355.487 253.901 345.309 247.338 335.07 243.818C331.966 242.75 323.722 239.914 314.266 239.914C304.81 239.914 296.972 242.715 290.93 248.243C277.691 260.349 278.063 280.527 280.704 295.319C281.771 301.299 283.605 306.574 285.7 311.08C280.741 305.234 277.75 298.869 276.044 295.244C272.259 287.191 267.968 273.704 267.281 260.009C266.805 250.501 267.925 237.643 275.969 230.368C280.335 226.422 286.358 224.421 293.873 224.421C307.438 224.421 321.484 230.738 326.895 233.453C336.522 238.285 347.317 245.8 357.294 254.607C368.105 264.156 377.607 274.858 384.769 285.557C400.379 308.873 401.06 326.215 398.884 336.657C397.005 345.678 391.998 353.549 385.493 357.718C384.012 358.667 381.924 359.451 379.358 360.048L379.355 360.045Z" fill="#9DD38C" stroke="white" stroke-width="2" stroke-miterlimit="10"/>
</svg>
